<svg width="64" height="64" viewBox="0 0 64 64" fill="none" xmlns="http://www.w3.org/2000/svg">
<path d="M31.9885 0C14.3427 0 0 14.3427 0 31.9885C0 49.6343 14.3427 63.977 31.9885 63.977C49.6343 63.977 63.977 49.6343 63.977 31.9885C63.977 14.3427 49.6343 0 31.9885 0ZM31.9885 2.78161C36.5434 2.78161 40.6115 8.81422 42.802 17.5589C39.4467 17.0026 35.8132 16.6896 31.9885 16.6896C28.1812 16.6896 24.5477 17.0026 21.175 17.5589C23.3655 8.81422 27.4336 2.78161 31.9885 2.78161ZM43.4626 20.5144C44.1406 24.0609 44.5057 27.9378 44.5057 31.9885C44.5057 36.0392 44.1232 39.9161 43.4626 43.4626C39.9161 44.1406 36.0392 44.5057 31.9885 44.5057C27.9378 44.5057 24.0609 44.1232 20.5144 43.4626C19.8363 39.9161 19.4713 36.0392 19.4713 31.9885C19.4713 27.9378 19.8537 24.0609 20.5144 20.5144C24.0609 19.8363 27.9378 19.4713 31.9885 19.4713C36.0392 19.4713 39.9161 19.8537 43.4626 20.5144ZM24.7041 3.73778C21.8356 6.91925 19.5408 11.9609 18.15 18.15C11.9609 19.5408 6.93663 21.8356 3.73778 24.7041C6.38031 14.447 14.447 6.38031 24.7041 3.73778ZM17.5589 21.175C17.0026 24.5303 16.6896 28.1812 16.6896 31.9885C16.6896 35.7958 17.0026 39.4293 17.5589 42.802C8.81422 40.6115 2.78161 36.5434 2.78161 31.9885C2.78161 27.4336 8.81422 23.3655 17.5589 21.175ZM3.73778 39.2728C6.91925 42.1413 11.9609 44.4362 18.15 45.827C19.5408 52.0161 21.8356 57.0403 24.7041 60.2392C14.447 57.5967 6.38031 49.53 3.73778 39.2728ZM31.9885 61.1954C27.4336 61.1954 23.3655 55.1627 21.175 46.4181C24.5303 46.9744 28.1812 47.2873 31.9885 47.2873C35.7958 47.2873 39.4293 46.9744 42.802 46.4181C40.6115 55.1627 36.5434 61.1954 31.9885 61.1954ZM39.2728 60.2392C42.1413 57.0577 44.4362 52.0161 45.827 45.827C52.0161 44.4362 57.0403 42.1413 60.2392 39.2728C57.5967 49.53 49.53 57.5967 39.2728 60.2392ZM46.4181 42.802C46.9744 39.4467 47.2873 35.8132 47.2873 31.9885C47.2873 28.1812 46.9744 24.5477 46.4181 21.175C55.1627 23.3655 61.1954 27.4336 61.1954 31.9885C61.1954 36.5434 55.1627 40.6115 46.4181 42.802ZM45.827 18.15C44.4362 11.9609 42.1413 6.93663 39.2728 3.73778C49.53 6.38031 57.5967 14.447 60.2392 24.7041C57.0577 21.8356 52.0161 19.5408 45.827 18.15Z" fill="#00417F"/>
</svg>
