<svg width="68" height="54" viewBox="0 0 68 54" fill="none" xmlns="http://www.w3.org/2000/svg">
<path d="M20.9091 26.6516C23.5758 27.6968 25.6364 29.3806 27.0909 31.7032C28.6667 33.9097 29.4545 36.5807 29.4545 39.7161C29.4545 43.8968 28.0606 47.3226 25.2727 49.9935C22.4849 52.6645 19.0303 54 14.9091 54C10.5455 54 6.96971 52.6645 4.18183 49.9935C1.39395 47.3226 0 43.8968 0 39.7161C0 37.6258 0.242418 35.5936 0.727267 33.6194C1.33333 31.6452 2.42424 28.6839 4 24.7355L13.6364 0H28.1818L20.9091 26.6516ZM59.4546 26.6516C62.1212 27.6968 64.1818 29.3806 65.6363 31.7032C67.2121 33.9097 68 36.5807 68 39.7161C68 43.8968 66.6061 47.3226 63.8182 49.9935C61.0303 52.6645 57.5758 54 53.4545 54C49.0909 54 45.5152 52.6645 42.7273 49.9935C39.9394 47.3226 38.5454 43.8968 38.5454 39.7161C38.5454 37.6258 38.7879 35.5936 39.2727 33.6194C39.8788 31.6452 40.9697 28.6839 42.5455 24.7355L52.1818 0H66.7273L59.4546 26.6516Z" fill="#0096FF"/>
</svg>
