<svg width="32" height="32" viewBox="0 0 32 32" fill="none" xmlns="http://www.w3.org/2000/svg">
<path d="M16 0C7.17391 0 0 7.17391 0 16C0 24.8261 7.17391 32 16 32C24.8261 32 32 24.8261 32 16C32 7.17391 24.8261 0 16 0ZM16 1.3913C18.2783 1.3913 20.313 4.4087 21.4087 8.78261C19.7304 8.50435 17.913 8.34783 16 8.34783C14.0957 8.34783 12.2783 8.50435 10.5913 8.78261C11.687 4.4087 13.7217 1.3913 16 1.3913ZM21.7391 10.2609C22.0783 12.0348 22.2609 13.9739 22.2609 16C22.2609 18.0261 22.0696 19.9652 21.7391 21.7391C19.9652 22.0783 18.0261 22.2609 16 22.2609C13.9739 22.2609 12.0348 22.0696 10.2609 21.7391C9.92174 19.9652 9.73913 18.0261 9.73913 16C9.73913 13.9739 9.93044 12.0348 10.2609 10.2609C12.0348 9.92174 13.9739 9.73913 16 9.73913C18.0261 9.73913 19.9652 9.93044 21.7391 10.2609ZM12.3565 1.86957C10.9217 3.46087 9.77391 5.98261 9.07826 9.07826C5.98261 9.77391 3.46957 10.9217 1.86957 12.3565C3.1913 7.22609 7.22609 3.1913 12.3565 1.86957ZM8.78261 10.5913C8.50435 12.2696 8.34783 14.0957 8.34783 16C8.34783 17.9043 8.50435 19.7217 8.78261 21.4087C4.4087 20.313 1.3913 18.2783 1.3913 16C1.3913 13.7217 4.4087 11.687 8.78261 10.5913ZM1.86957 19.6435C3.46087 21.0783 5.98261 22.2261 9.07826 22.9217C9.77391 26.0174 10.9217 28.5304 12.3565 30.1304C7.22609 28.8087 3.1913 24.7739 1.86957 19.6435ZM16 30.6087C13.7217 30.6087 11.687 27.5913 10.5913 23.2174C12.2696 23.4957 14.0957 23.6522 16 23.6522C17.9043 23.6522 19.7217 23.4957 21.4087 23.2174C20.313 27.5913 18.2783 30.6087 16 30.6087ZM19.6435 30.1304C21.0783 28.5391 22.2261 26.0174 22.9217 22.9217C26.0174 22.2261 28.5304 21.0783 30.1304 19.6435C28.8087 24.7739 24.7739 28.8087 19.6435 30.1304ZM23.2174 21.4087C23.4957 19.7304 23.6522 17.913 23.6522 16C23.6522 14.0957 23.4957 12.2783 23.2174 10.5913C27.5913 11.687 30.6087 13.7217 30.6087 16C30.6087 18.2783 27.5913 20.313 23.2174 21.4087ZM22.9217 9.07826C22.2261 5.98261 21.0783 3.46957 19.6435 1.86957C24.7739 3.1913 28.8087 7.22609 30.1304 12.3565C28.5391 10.9217 26.0174 9.77391 22.9217 9.07826Z" fill="#00417F"/>
</svg>
