<svg width="68" height="68" viewBox="0 0 68 68" fill="none" xmlns="http://www.w3.org/2000/svg">
<path d="M4.76233 38.4984H17.2143C18.3886 38.4984 19.4964 39.0742 20.1611 40.0488L20.3827 40.381L26.3206 34.4451L26.2763 34.2679L19.8952 10.4798C19.7623 9.97037 20.0725 9.43879 20.5821 9.3059L33.1448 5.93924V1.97456C33.1448 1.44298 33.588 1 34.1197 1H66.0251C66.291 1 66.5347 1.11075 66.712 1.28794C66.8892 1.46513 67 1.70877 67 1.97456V65.8303C67 66.3619 66.5569 66.8049 66.0251 66.8049H26.8302C25.3236 66.8049 23.8834 66.2512 22.7534 65.2766L20.8036 63.5711L20.6707 64.1027C20.2719 65.6974 18.8539 66.8049 17.2143 66.8049H4.76233C2.79039 66.8049 1.19512 65.2101 1.19512 63.2389V42.0865C1.19512 40.1153 2.79039 38.4984 4.76233 38.4984ZM33.1227 7.93266L22.0223 10.9006L28.2261 34.0243L28.2704 34.0686C28.3369 34.1793 28.4033 34.29 28.4255 34.4008L29.8214 39.8938H33.1227L27.938 20.7348C27.8716 20.4912 27.8937 20.2254 28.0267 20.0039C28.1596 19.7824 28.359 19.6274 28.6027 19.5609C30.6411 19.0072 31.8597 16.903 31.3058 14.8653C31.2394 14.6217 31.2837 14.3559 31.3945 14.1344C31.5274 13.9129 31.7268 13.7579 31.9705 13.6914L33.0784 13.4035V7.93266H33.1227ZM33.1227 17.9662L32.5023 18.9407C31.9484 19.8267 31.1729 20.5355 30.2645 21.0006L30.0208 21.1335L33.1227 32.5846V17.9662ZM55.1684 64.3906L54.9468 64.8558H65.0724V2.92697H35.0724V39.9381H38.263V13.7579C38.263 13.2263 38.7061 12.7833 39.2379 12.7833C41.3427 12.7833 43.071 11.0557 43.071 8.95152C43.071 8.41994 43.5141 7.97696 44.0458 7.97696H56.099C56.6307 7.97696 57.0739 8.41994 57.0739 8.95152C57.0739 11.0557 58.8021 12.7833 60.907 12.7833C61.4387 12.7833 61.8818 13.2263 61.8818 13.7579V47.7345L61.9483 47.8231C62.4801 48.5319 62.7459 49.3736 62.7459 50.2595C62.7459 52.0979 61.5052 53.7148 59.7548 54.2021L59.356 54.3128L59.5333 54.6672C59.8213 55.2431 59.9764 55.8632 59.9764 56.4834C59.9764 58.7426 58.1374 60.5588 55.8996 60.5588H54.969L55.1906 61.024C55.4343 61.5555 55.5451 62.1093 55.5451 62.7073C55.5451 63.3053 55.4121 63.8591 55.1684 64.3906ZM47.746 39.2957C45.5746 38.3655 44.1788 36.2392 44.1788 33.8914C44.1788 32.3188 44.7992 30.8569 45.907 29.7273C47.0148 28.6199 48.4993 27.9997 50.0724 27.9997C53.3073 27.9997 55.9439 30.6355 55.9439 33.8692C55.9439 36.217 54.548 38.3433 52.3767 39.2736L50.8922 39.9159H54.5923C56.8523 39.9159 58.6691 41.7543 58.6691 43.9913C58.6691 44.5672 58.5362 45.1431 58.3146 45.6747L58.0931 46.1398H58.647C58.935 46.1398 59.2231 46.1619 59.5111 46.2284L59.9099 46.317V14.666L59.644 14.5995C57.4505 14.1122 55.7223 12.3846 55.2349 10.1919L55.1684 9.92607H44.8656L44.7992 10.1919C44.3117 12.3846 42.5835 14.1122 40.39 14.5995L40.1241 14.666V39.9381H49.2526L47.746 39.2957ZM50.0724 37.8339C52.2438 37.8339 54.0163 36.062 54.0163 33.8914C54.0163 31.7208 52.2438 29.9488 50.0724 29.9488C47.9011 29.9488 46.1286 31.7208 46.1286 33.8914C46.1064 36.062 47.8789 37.8339 50.0724 37.8339ZM20.7815 60.9575L24.0385 63.7926C24.814 64.4792 25.811 64.8558 26.8524 64.8558H51.4461C52.6426 64.8558 53.5953 63.8812 53.5953 62.7073C53.5953 61.5334 52.6204 60.5588 51.4461 60.5588H41.52C40.9882 60.5588 40.5451 60.1159 40.5451 59.5843C40.5451 59.0527 40.9882 58.6097 41.52 58.6097H55.8774C57.0739 58.6097 58.0266 57.6352 58.0266 56.4613C58.0266 55.2874 57.0517 54.3128 55.8774 54.3128H41.52C40.9882 54.3128 40.5451 53.8698 40.5451 53.3382C40.5451 52.8067 40.9882 52.3637 41.52 52.3637H58.647C59.8213 52.3637 60.7962 51.3891 60.7962 50.2152C60.7962 49.0413 59.8213 48.0668 58.647 48.0668H41.52C40.9882 48.0668 40.5451 47.6238 40.5451 47.0922C40.5451 46.5606 40.9882 46.1176 41.52 46.1176H54.5923C55.7666 46.1176 56.7415 45.1431 56.7415 43.9692C56.7415 42.7953 55.7666 41.8207 54.5923 41.8207H29.068C28.6249 41.8207 28.2482 41.5328 28.1375 41.0898L26.9632 36.505L20.7815 42.6845V60.9575ZM3.12274 63.2167C3.12274 64.1248 3.8539 64.8558 4.76233 64.8558H17.2143C18.1227 64.8558 18.8539 64.1248 18.8539 63.2167V42.0644C18.8539 41.1563 18.1227 40.4253 17.2143 40.4253H11.941V55.7082C11.941 56.2398 11.4979 56.6828 10.9662 56.6828C10.4344 56.6828 9.99126 56.2398 9.99126 55.7082V40.4253H4.71801C3.80959 40.4253 3.07843 41.1563 3.07843 42.0644V63.2167H3.12274Z" fill="#00417F" stroke="#00417F" stroke-width="0.5"/>
</svg>
