<svg width="32" height="31" viewBox="0 0 32 31" fill="none" xmlns="http://www.w3.org/2000/svg">
<path d="M31.0832 15.0142C30.5739 15.0142 30.1664 15.4217 30.1664 15.931V24.2706C30.1664 26.5389 28.3192 28.3793 26.0577 28.3793H5.94228C3.67402 28.3793 1.83362 26.5321 1.83362 24.2706V15.7952C1.83362 15.2859 1.42615 14.8784 0.916808 14.8784C0.40747 14.8784 0 15.2859 0 15.7952V24.2706C0 27.5507 2.66893 30.2129 5.94228 30.2129H26.0577C29.3379 30.2129 32 27.544 32 24.2706V15.931C32 15.4285 31.5925 15.0142 31.0832 15.0142Z" fill="white"/>
<path d="M31.0832 15.0142C30.5739 15.0142 30.1664 15.4217 30.1664 15.931V24.2706C30.1664 26.5389 28.3192 28.3793 26.0577 28.3793H5.94228C3.67402 28.3793 1.83362 26.5321 1.83362 24.2706V15.7952C1.83362 15.2859 1.42615 14.8784 0.916808 14.8784C0.40747 14.8784 0 15.2859 0 15.7952V24.2706C0 27.5507 2.66893 30.2129 5.94228 30.2129H26.0577C29.3379 30.2129 32 27.544 32 24.2706V15.931C32 15.4285 31.5925 15.0142 31.0832 15.0142Z" stroke="white"/>
<path d="M15.3545 22.9331C15.5311 23.1096 15.7688 23.2047 15.9997 23.2047C16.2306 23.2047 16.4683 23.1164 16.6449 22.9331L22.4717 17.1062C22.8316 16.7463 22.8316 16.1691 22.4717 15.8091C22.1118 15.4492 21.5345 15.4492 21.1746 15.8091L16.9165 20.074V1.47296C16.9165 0.963623 16.509 0.556152 15.9997 0.556152C15.4904 0.556152 15.0829 0.963623 15.0829 1.47296V20.074L10.818 15.8091C10.4581 15.4492 9.88086 15.4492 9.52093 15.8091C9.16099 16.1691 9.16099 16.7463 9.52093 17.1062L15.3545 22.9331Z" fill="white"/>
<path d="M15.3545 22.9331C15.5311 23.1096 15.7688 23.2047 15.9997 23.2047C16.2306 23.2047 16.4683 23.1164 16.6449 22.9331L22.4717 17.1062C22.8316 16.7463 22.8316 16.1691 22.4717 15.8091C22.1118 15.4492 21.5345 15.4492 21.1746 15.8091L16.9165 20.074V1.47296C16.9165 0.963623 16.509 0.556152 15.9997 0.556152C15.4904 0.556152 15.0829 0.963623 15.0829 1.47296V20.074L10.818 15.8091C10.4581 15.4492 9.88086 15.4492 9.52093 15.8091C9.16099 16.1691 9.16099 16.7463 9.52093 17.1062L15.3545 22.9331Z" stroke="white"/>
</svg>
