<svg width="22" height="23" viewBox="0 0 22 23" fill="none" xmlns="http://www.w3.org/2000/svg">
<path d="M20.5806 10.0441H13.9752H12.6104V8.68611V2.11327V2.05895V2.00463C12.6104 1.62438 12.5012 1.24414 12.2283 0.91821C11.9553 0.592284 11.5732 0.429321 11.1911 0.375C11.1365 0.375 11.1365 0.375 11.0819 0.375C10.263 0.375 9.60794 0.972531 9.55335 1.78735C9.55335 1.84167 9.55335 1.89599 9.55335 2.00463V2.05895V2.11327V8.68611V10.0441H8.18859H1.52854C0.709677 10.0441 0 10.7503 0 11.5651C0 11.9454 0.163772 12.3799 0.436725 12.6515C0.709677 12.9231 1.09181 13.0861 1.52854 13.0861H8.134H9.49876V14.4441V21.0713C9.55335 21.8318 10.2084 22.4836 11.0273 22.4836C11.0819 22.4836 11.0819 22.4836 11.1365 22.4836C11.9007 22.4293 12.5012 21.8318 12.5558 21.0713V14.4985V13.1404H13.9206H20.5261C20.9082 13.0861 21.2903 12.9231 21.5633 12.5972C21.8362 12.2713 21.9454 11.8911 21.9454 11.5108C21.9454 10.696 21.3449 10.0985 20.5806 10.0441Z" fill="#0096FF"/>
</svg>
