<svg width="58" height="65" viewBox="0 0 58 65" fill="none" xmlns="http://www.w3.org/2000/svg">
<path d="M19.2137 50.6394L12.5926 43.6096C12.5061 43.5014 12.3762 43.4149 12.2464 43.3716C11.8569 43.1986 11.4242 43.3068 11.1645 43.6096L4.56511 50.6178C4.34873 50.8557 4.24054 51.1585 4.28382 51.4613C4.37037 51.9372 4.78148 52.2617 5.23587 52.2617H7.1616V61.541V63.8771C7.1616 64.4178 7.59435 64.8504 8.13529 64.8504H15.6002C16.1412 64.8504 16.5739 64.4178 16.5739 63.8771V61.541V52.2617H18.4564C18.7809 52.2617 19.0839 52.1319 19.257 51.8723C19.5815 51.5046 19.5383 50.9855 19.2137 50.6394Z" fill="#00417F"/>
<path d="M29.8612 36.8826C29.5799 36.5798 29.1471 36.4933 28.736 36.6663C28.6278 36.7096 28.5196 36.7961 28.4331 36.8826L21.8337 43.9124C21.6173 44.1504 21.5091 44.4532 21.5524 44.756C21.6389 45.2319 22.05 45.5563 22.5044 45.5563H24.4302V61.5627V63.8988C24.4302 64.4395 24.8629 64.8721 25.4038 64.8721H32.8904C33.4314 64.8721 33.8641 64.4395 33.8641 63.8988V61.5627V45.5563H35.7898C36.2442 45.5563 36.677 45.2319 36.7419 44.756C36.8068 44.4532 36.677 44.1287 36.4822 43.9124L29.8612 36.8826Z" fill="#00417F"/>
<path d="M53.749 37.7037L47.1279 30.6739C46.9332 30.4792 46.6952 30.3711 46.4139 30.3711C46.1326 30.3711 45.8946 30.4792 45.6998 30.6739L39.0788 37.7037C38.8624 37.9417 38.7542 38.2445 38.7975 38.5473C38.884 39.0232 39.2952 39.3476 39.7495 39.3476H41.6753V61.5619V63.8979C41.6753 64.4387 42.108 64.8713 42.649 64.8713H50.1139C50.6548 64.8713 51.0876 64.4387 51.0876 63.8979V61.5619V39.3693H53.0133C53.4677 39.3693 53.9005 39.0448 53.9654 38.5689C54.0736 38.2445 53.9654 37.9417 53.749 37.7037Z" fill="#00417F"/>
<path d="M28.777 20.7435C27.2408 20.6569 26.8297 19.7268 26.7431 19.5105C26.6349 19.0996 26.2455 18.7751 25.7911 18.7751C25.2501 18.7751 24.8174 19.2077 24.8174 19.7485C24.8174 19.835 24.8174 19.8999 24.839 19.9864C24.839 19.9864 24.839 19.9864 24.839 20.008C24.8607 20.0513 24.8607 20.0946 24.8823 20.1378C25.0554 20.6353 25.7911 22.1927 27.9332 22.6037V23.9015C27.9332 24.4422 28.3659 24.8748 28.9069 24.8748C29.4478 24.8748 29.8806 24.4422 29.8806 23.9015V22.6253C30.811 22.4522 31.4385 22.0629 31.8279 21.6736C32.5636 20.9814 32.9964 19.9431 32.9964 18.8833C32.9964 17.8883 32.6069 15.5522 29.0151 15.1412C28.301 15.0547 27.8034 14.8384 27.5004 14.4707C27.2408 14.1462 27.2191 13.7785 27.2191 13.6487C27.2191 13.4757 27.2624 11.9616 28.9069 11.9616C29.9887 11.9616 30.4215 12.6321 30.4864 12.7835C30.6379 13.1513 30.9841 13.3892 31.3952 13.3892C31.9361 13.3892 32.3689 12.9566 32.3689 12.4158C32.3689 12.2644 32.3256 12.113 32.2607 11.9616C31.9794 11.3559 31.2004 10.4258 29.8806 10.1014V8.78195C29.8806 8.2412 29.4478 7.80859 28.9069 7.80859C28.3659 7.80859 27.9332 8.2412 27.9332 8.78195V10.0798C26.0074 10.534 25.2718 12.3293 25.2718 13.6055C25.2718 15.0115 26.2022 16.7635 28.7987 17.0447C31.049 17.2826 31.049 18.4507 31.049 18.84C31.049 19.251 30.8975 19.8134 30.4864 20.2027C30.1186 20.6353 29.556 20.7867 28.777 20.7435Z" fill="#00417F"/>
<path d="M7.68131 16.4812C7.68131 15.9404 7.24856 15.5078 6.70762 15.5078H0.973687C0.43275 15.5078 0 15.9404 0 16.4812C0 17.0219 0.43275 17.4545 0.973687 17.4545H6.70762C7.24856 17.4545 7.68131 17.0219 7.68131 16.4812Z" fill="#00417F"/>
<path d="M7.98375 24.1613L5.95051 24.9616C5.45302 25.1563 5.19345 25.7187 5.38813 26.2378C5.53954 26.6271 5.90725 26.8651 6.29659 26.8651C6.40475 26.8651 6.53453 26.8434 6.64268 26.8002L8.67592 25.9999C9.17341 25.8052 9.43297 25.2428 9.2383 24.7237C9.04363 24.2045 8.48125 23.9666 7.98375 24.1613Z" fill="#00417F"/>
<path d="M5.92996 8.02329L7.9632 8.82361C8.07135 8.86687 8.20113 8.8885 8.30929 8.8885C8.69863 8.8885 9.06634 8.65057 9.21775 8.26122C9.41243 7.76373 9.17449 7.20134 8.65537 6.98504L6.62213 6.18472C6.12463 5.99005 5.56225 6.22799 5.34595 6.74711C5.19454 7.2446 5.43247 7.82862 5.92996 8.02329Z" fill="#00417F"/>
<path d="M56.8854 15.5078H51.1514C50.6105 15.5078 50.1777 15.9404 50.1777 16.4812C50.1777 17.0219 50.6105 17.4545 51.1514 17.4545H56.8854C57.4263 17.4545 57.859 17.0219 57.859 16.4812C57.859 15.9404 57.4047 15.5078 56.8854 15.5078Z" fill="#00417F"/>
<path d="M49.1601 25.9803L51.1933 26.7806C51.3015 26.8239 51.4312 26.8455 51.5394 26.8455C51.9287 26.8455 52.2964 26.6076 52.4479 26.2183C52.6425 25.7208 52.4046 25.1584 51.8855 24.9421L49.8522 24.1418C49.3547 23.9471 48.7923 24.185 48.576 24.7041C48.403 25.2233 48.6626 25.7857 49.1601 25.9803Z" fill="#00417F"/>
<path d="M49.5282 8.8885C49.6363 8.8885 49.7661 8.86687 49.8743 8.82361L51.9075 8.02329C52.405 7.82862 52.6646 7.26623 52.4699 6.74711C52.2752 6.22799 51.7128 5.99005 51.1937 6.18472L49.1605 6.98504C48.663 7.17971 48.4034 7.7421 48.5981 8.26122C48.7495 8.65057 49.1172 8.8885 49.5282 8.8885Z" fill="#00417F"/>
<path d="M28.9294 0C19.8849 0 12.5498 7.33264 12.5498 16.3741C12.5498 25.4155 19.8849 32.7481 28.9294 32.7481C37.9739 32.7481 45.309 25.4155 45.309 16.3741C45.309 7.33264 37.9739 0 28.9294 0ZM28.9294 29.244C21.8106 29.244 16.0551 23.4688 16.0551 16.3741C16.0551 9.25773 21.8323 3.50409 28.9294 3.50409C36.0265 3.50409 41.8037 9.27936 41.8037 16.3741C41.8037 23.4904 36.0481 29.244 28.9294 29.244Z" fill="#00417F"/>
</svg>
