<svg width="159" height="33" viewBox="0 0 159 33" fill="none" xmlns="http://www.w3.org/2000/svg">
<path d="M9.42919 11.5917C5.49862 11.5917 2.0071 13.6323 0 16.7248V32.4398H15.6387C18.712 30.4202 20.7191 26.928 20.7191 22.9519C20.7191 16.6827 15.6596 11.5917 9.42919 11.5917ZM0 0V13.1064L12.8998 0.126225L32.1136 19.4597L19.2138 32.4398H32.2391V0H0Z" fill="white"/>
<path d="M62.2746 9.26303C62.1073 6.75957 61.041 4.88723 59.1385 3.66706C57.5704 2.6783 55.4379 2.15236 52.929 2.15236H44.2734L40.2383 31.3314H48.6848C54.058 31.3314 57.8213 30.1953 59.8911 27.9443C61.2501 26.4717 61.8564 24.5363 61.6892 22.1801C61.4801 19.0455 59.9539 16.8996 57.4659 16.1213C60.4766 15.1746 62.5046 12.3766 62.2746 9.26303ZM54.518 24.7256C53.2844 26.072 50.9219 26.2403 48.5594 26.2403H46.9286L47.9949 18.5195H49.6048C52.49 18.5195 55.187 18.8982 55.3961 21.6962C55.4797 23.0216 55.187 24.0103 54.518 24.7256ZM55.3125 12.2714C54.2253 13.4495 52.1345 13.7019 50.5874 13.7019H48.6848L49.6257 7.20136H51.3819C53.7444 7.20136 55.8979 7.3907 56.0651 9.81001C56.1278 10.8198 55.8769 11.6613 55.3125 12.2714ZM91.3985 2.13132H85.4608L82.4292 23.1478L75.0908 2.13132H67.4387L63.2363 31.3103H69.2576L72.1637 10.1256L79.3768 31.3103H87.1334L91.3985 2.13132ZM112.64 4.57167C110.361 2.95179 107.351 2.13132 103.713 2.13132H94.9318L90.8549 31.3103H100.765C106.577 31.3103 111.01 29.7115 113.895 26.5979C117.533 22.6429 117.763 17.4045 117.574 14.6276C117.261 10.0625 115.609 6.67542 112.64 4.57167ZM108.542 23.274C106.724 25.2515 103.901 26.2403 100.2 26.2403H97.8797L100.514 7.20136H102.228C107.434 7.20136 110.738 9.68378 111.01 13.8282C111.302 17.9936 110.466 21.1703 108.542 23.274ZM127.882 7.20136H139.004L139.611 2.13132H122.299L118.223 31.3103H135.743L136.496 26.2403H125.247L126.293 18.7509H136.286L136.935 13.6809H127.004L127.882 7.20136ZM158.615 2.93075C156.441 2.06821 153.89 1.64746 151.047 1.64746C147.451 1.64746 144.482 2.72037 142.684 4.67686C141.262 6.2126 140.635 8.19012 140.802 10.5884C141.095 14.9221 144.252 16.6262 147.012 18.1409C149.249 19.361 151.172 20.3919 151.319 22.5798C151.402 23.6737 151.11 24.5994 150.441 25.3146C149.583 26.2403 148.141 26.7662 146.468 26.7662C144.001 26.7662 141.555 25.7564 139.485 24.8308L139.193 24.7046L137.938 30.1533L138.189 30.2374C141.179 31.3103 143.98 31.8573 146.51 31.8573C150.671 31.8573 153.869 30.7633 155.793 28.7017C157.319 27.0397 158.009 24.7887 157.821 22.0328C157.486 17.3625 154.058 15.3849 151.277 13.8071C149.186 12.608 147.388 11.5982 147.263 9.76793C147.221 9.07369 147.409 8.48465 147.848 8.02182C148.705 7.09617 150.315 6.78061 151.528 6.78061C153.43 6.78061 155.563 7.30655 157.424 8.2322L157.737 8.37946L158.887 3.09905L158.615 2.93075Z" fill="white"/>
</svg>
