<svg width="96" height="41" viewBox="0 0 96 41" fill="none" xmlns="http://www.w3.org/2000/svg">
<path d="M37.3417 22.7699L34.2987 19.7836C34.0246 19.514 33.877 19.1523 33.877 18.7692L33.9473 1.41869C33.9473 0.638408 34.5798 0 35.3529 0H59.0577C59.8307 0 60.4633 0.638408 60.4633 1.41869V3.8872C60.4633 4.66747 59.8307 5.30588 59.0577 5.30588H40.94C40.5534 5.30588 40.2372 5.62509 40.2372 6.01523V12.527C40.2372 12.9881 40.6659 13.3285 41.1086 13.2151C42.3807 12.8958 43.6035 12.5696 44.8474 12.3284C50.1042 11.2927 54.7567 12.449 58.5728 16.2581C63.7031 21.3796 68.3555 26.2031 72.8252 30.5939C74.2167 31.963 75.798 33.2824 77.5338 34.1407C81.4272 36.0701 86.2061 34.6443 88.6378 31.1189C90.8867 27.863 90.4018 23.1104 87.5133 20.2588C84.8498 17.6272 79.7687 17.1235 76.4586 19.3367C75.1584 20.2021 74.0059 21.9825 72.7057 23.1104C72.1505 23.5927 71.3142 23.5644 70.7941 23.0394L67.7652 19.9893C67.4981 19.7197 67.3505 19.3651 67.3505 18.982V1.43997C67.3505 0.659689 67.983 0.0212803 68.7561 0.0212803H92.3766C93.1496 0.0212803 93.7821 0.659689 93.7821 1.43997V4.00779C93.7821 4.78806 93.1496 5.42647 92.3766 5.42647H74.2729C73.8864 5.42647 73.5701 5.74568 73.5701 6.13581V12.4206C73.5701 12.8675 73.9777 13.2009 74.4064 13.1157C76.1564 12.7682 77.8993 12.378 79.6562 12.151C86.2132 11.3282 92.222 14.6479 94.7379 20.3936C97.3031 26.2457 95.8483 33.2114 91.2381 37.1766C86.0515 41.6313 79.2135 42.3052 73.6053 38.3754C69.9016 35.7792 66.6618 32.5375 63.0003 29.3952C62.2905 30.7855 61.6931 32.1403 60.9341 33.4029C56.1482 41.3263 46.752 43.5394 39.422 37.7086C33.2375 32.7858 27.9526 26.7848 22.0281 21.5144C20.222 19.9042 17.7482 18.5635 15.3868 18.1308C11.402 17.4002 8.27466 19.4998 6.72152 22.9614C5.21756 26.3166 6.05387 30.1896 8.81581 32.6865C11.7886 35.3749 15.8366 35.8147 19.3083 33.6016C20.9037 32.5872 21.6767 32.0126 23.778 30.3031C24.3332 29.8562 25.1274 29.8917 25.6404 30.3882L27.2638 31.9772C27.7839 32.4879 27.8401 33.3249 27.3763 33.8924C22.0914 40.4112 16.8978 42.0924 10.6501 40.2552C4.78184 38.5315 0.642453 33.7151 0.0732 27.9836C-0.510109 22.0818 2.42752 16.2865 7.64216 13.6832C13.3066 10.8529 19.0694 11.0161 23.8624 15.1941C29.084 19.741 33.7365 24.9263 38.677 29.7853C40.0826 31.1685 41.5022 32.6227 43.1678 33.6512C47.0823 36.0772 52.2969 35.0628 55.0097 31.5799C57.4132 28.4872 57.2234 23.5644 54.581 20.6561C51.6855 17.4711 46.3233 16.9888 42.6196 19.6701C41.5092 20.4787 40.4269 21.7768 39.2603 22.8125C38.7051 23.309 37.8688 23.2877 37.3417 22.7699Z" fill="#0096FF"/>
</svg>
