<svg width="10" height="11" viewBox="0 0 10 11" fill="none" xmlns="http://www.w3.org/2000/svg">
<path d="M9.65911 2.99293C9.76205 2.89696 9.84508 2.78165 9.90346 2.65358C9.96184 2.52552 9.99442 2.38721 9.99934 2.24656C10.0043 2.1059 9.98144 1.96565 9.93217 1.83382C9.88289 1.70198 9.80813 1.58115 9.71216 1.47821C9.61618 1.37526 9.50087 1.29223 9.3728 1.23386C9.24474 1.17548 9.10643 1.1429 8.96578 1.13797C8.82512 1.13305 8.68487 1.15587 8.55304 1.20515C8.42121 1.25442 8.30037 1.32918 8.19743 1.42516L5.06188 4.34853L2.13851 1.21191C1.9429 1.01156 1.67665 0.895736 1.39673 0.889208C1.11681 0.88268 0.84545 0.985971 0.640718 1.17698C0.435986 1.36799 0.314145 1.63154 0.301266 1.91124C0.288387 2.19094 0.385494 2.46458 0.571807 2.67359L3.49518 5.80914L0.358555 8.73251C0.251978 8.82751 0.165459 8.94285 0.104081 9.07176C0.042702 9.20066 0.00770117 9.34054 0.00113422 9.48316C-0.00543273 9.62578 0.0165662 9.76828 0.0658394 9.90228C0.115113 10.0363 0.190666 10.1591 0.288063 10.2635C0.385459 10.3679 0.502735 10.4518 0.633001 10.5102C0.763267 10.5686 0.903898 10.6004 1.04663 10.6038C1.18937 10.6071 1.33133 10.5819 1.46418 10.5296C1.59702 10.4773 1.71808 10.3989 1.82024 10.2992L4.95579 7.37691L7.87916 10.5125C7.97355 10.621 8.08883 10.7094 8.21812 10.7725C8.34742 10.8355 8.48808 10.8719 8.63173 10.8794C8.77538 10.8869 8.91908 10.8655 9.05425 10.8163C9.18943 10.7671 9.31331 10.6912 9.41853 10.5931C9.52375 10.495 9.60814 10.3767 9.66667 10.2453C9.7252 10.1139 9.75669 9.97209 9.75924 9.82827C9.76179 9.68444 9.73535 9.54158 9.68151 9.40819C9.62768 9.2748 9.54753 9.15361 9.44586 9.05185L6.52356 5.9163L9.65911 2.99293Z" fill="white"/>
</svg>
