<svg width="72" height="68" viewBox="0 0 72 68" fill="none" xmlns="http://www.w3.org/2000/svg">
<path d="M11.2558 41.9219H4.15925C2.41459 41.9219 1 43.3411 1 45.0916V63.5892C1 65.3397 2.41459 66.7589 4.15925 66.7589H11.2558C13.0004 66.7589 14.415 65.3397 14.415 63.5892V45.0916C14.415 43.3411 13.0004 41.9219 11.2558 41.9219ZM12.3403 63.5892C12.3403 64.2043 11.8452 64.701 11.2322 64.701H4.15925C3.54626 64.701 3.05115 64.2043 3.05115 63.5892V45.0916C3.05115 44.4765 3.54626 43.9798 4.15925 43.9798H11.2558C11.8688 43.9798 12.3639 44.4765 12.3639 45.0916V63.5892H12.3403Z" fill="#00417F" stroke="#00417F" stroke-width="0.5" stroke-miterlimit="10"/>
<path d="M30.2108 27.3984H23.1143C21.3697 27.3984 19.9551 28.8177 19.9551 30.5681V40.5739V45.9198V63.5896C19.9551 65.34 21.3697 66.7593 23.1143 66.7593H30.2108C31.9555 66.7593 33.3701 65.34 33.3701 63.5896V30.5681C33.3701 28.8414 31.9555 27.3984 30.2108 27.3984ZM31.3189 63.5896C31.3189 64.2046 30.8238 64.7013 30.2108 64.7013H23.1143C22.5013 64.7013 22.0062 64.2046 22.0062 63.5896V45.423V40.6449V30.5681C22.0062 29.9531 22.5013 29.4564 23.1143 29.4564H30.2108C30.8238 29.4564 31.3189 29.9531 31.3189 30.5681V63.5896Z" fill="#00417F" stroke="#00417F" stroke-width="0.5" stroke-miterlimit="10"/>
<path d="M49.1669 36.1016H42.0704C40.3257 36.1016 38.9111 37.5208 38.9111 39.2712V63.5879C38.9111 65.3383 40.3257 66.7576 42.0704 66.7576H49.1669C50.9116 66.7576 52.3262 65.3383 52.3262 63.5879V39.2712C52.3262 37.5445 50.9116 36.1016 49.1669 36.1016ZM50.275 63.5879C50.275 64.2029 49.7799 64.6997 49.1669 64.6997H42.0704C41.4574 64.6997 40.9623 64.2029 40.9623 63.5879V39.2712C40.9623 38.6562 41.4574 38.1595 42.0704 38.1595H49.1669C49.7799 38.1595 50.275 38.6562 50.275 39.2712V63.5879Z" fill="#00417F" stroke="#00417F" stroke-width="0.5" stroke-miterlimit="10"/>
<path d="M68.121 20.1602H61.0245C59.2798 20.1602 57.8652 21.5794 57.8652 23.3298V56.99V58.2673V63.6132C57.8652 65.3636 59.2798 66.7829 61.0245 66.7829H68.121C69.8657 66.7829 71.2802 65.3636 71.2802 63.6132V23.3298C71.2802 21.5794 69.8657 20.1602 68.121 20.1602ZM69.2291 63.5895C69.2291 64.2045 68.734 64.7013 68.121 64.7013H61.0245C60.4115 64.7013 59.9164 64.2045 59.9164 63.5895V58.2436V56.9663V23.3298C59.9164 22.7148 60.4115 22.2181 61.0245 22.2181H68.121C68.734 22.2181 69.2291 22.7148 69.2291 23.3298V63.5895Z" fill="#00417F" stroke="#00417F" stroke-width="0.5" stroke-miterlimit="10"/>
<path d="M7.69406 35.6063C11.2305 35.6063 14.1069 32.7205 14.1069 29.1723C14.1069 28.8885 14.0833 28.6046 14.0597 28.3444L24.174 20.6094C24.9285 20.9406 25.7772 21.1062 26.6495 21.1062C28.0406 21.1062 29.3137 20.6568 30.3746 19.8998L39.2158 23.9684C39.5223 27.2327 42.2572 29.811 45.605 29.811C49.1415 29.811 52.0178 26.9251 52.0178 23.377C52.0178 22.9985 51.9707 22.6201 51.9235 22.2416L62.3679 13.4658C63.0516 13.726 63.8061 13.868 64.5841 13.868C68.1206 13.868 70.9969 10.9821 70.9969 7.43398C70.9969 3.88583 68.1206 1 64.5841 1C61.0476 1 58.1713 3.88583 58.1713 7.43398C58.1713 7.81245 58.2184 8.19092 58.2656 8.56939L47.8212 17.3215C47.1375 17.0613 46.383 16.9194 45.605 16.9194C44.214 16.9194 42.9409 17.3688 41.8799 18.1257L33.0388 14.0572C32.7323 10.7929 29.9974 8.21457 26.6495 8.21457C23.1131 8.21457 20.2367 11.1004 20.2367 14.6486C20.2367 14.9324 20.2603 15.2163 20.2839 15.4765L10.1932 23.2351C9.43871 22.9039 8.58996 22.7383 7.71763 22.7383C4.18116 22.7383 1.30483 25.6242 1.30483 29.1723C1.28125 32.7205 4.15758 35.6063 7.69406 35.6063ZM64.5841 3.03427C66.9889 3.03427 68.9457 4.99758 68.9457 7.41032C68.9457 9.82307 66.9889 11.7864 64.5841 11.7864C62.2264 11.7864 60.2224 9.79941 60.2224 7.41032C60.2224 4.99758 62.1793 3.03427 64.5841 3.03427ZM59.02 10.6037C59.0436 10.6273 59.0672 10.651 59.0672 10.6983C59.4444 11.3369 59.9159 11.881 60.4818 12.3541L51.1926 20.16C51.1691 20.1364 50.8862 19.6869 50.7447 19.4977C50.4382 19.0956 50.1081 18.7408 49.7073 18.4096L59.02 10.6037ZM41.267 23.306C41.3141 20.9643 43.271 19.0009 45.6286 19.0009C47.9627 19.0009 49.9902 21.0116 49.9902 23.377C49.9902 25.7897 48.0334 27.7531 45.6286 27.7531C43.2238 27.7531 41.267 25.7897 41.267 23.377C41.267 23.3533 41.267 23.3297 41.267 23.306ZM31.9542 18.2913C32.3786 17.6763 32.6851 16.9903 32.8737 16.257L40.3475 19.6869C39.9702 20.231 39.6638 20.846 39.4751 21.4847C39.4516 21.5793 39.428 21.6739 39.4044 21.7685L31.9307 18.3386C31.9307 18.315 31.9307 18.315 31.9542 18.2913ZM26.6495 10.2962C29.0543 10.2962 31.0112 12.2595 31.0112 14.6722C31.0112 17.0376 29.0072 19.0483 26.6495 19.0483C24.3155 19.0483 22.2879 17.0376 22.2879 14.6722C22.3115 12.2595 24.2683 10.2962 26.6495 10.2962ZM20.944 17.5817C20.9676 17.6053 20.9676 17.629 20.9912 17.6527C21.3448 18.315 21.7928 18.9063 22.335 19.4031L13.4231 26.2392C13.2581 25.908 13.0695 25.6005 12.8573 25.3167C12.6215 24.9855 12.3386 24.7016 12.0557 24.4178L20.944 17.5817ZM7.69406 24.7963C8.66069 24.7963 9.5566 25.1274 10.2875 25.6951C11.3484 26.4994 12.0557 27.7767 12.0557 29.1723C12.0557 31.5851 10.0989 33.5484 7.69406 33.5484C5.28925 33.5484 3.33241 31.5851 3.33241 29.1723C3.33241 26.7596 5.28925 24.7963 7.69406 24.7963Z" fill="#00417F" stroke="#00417F" stroke-width="0.5" stroke-miterlimit="10"/>
</svg>
