<svg width="24" height="25" viewBox="0 0 24 25" fill="none" xmlns="http://www.w3.org/2000/svg">
<path d="M2.49414 10.9991C2.49414 15.242 5.9331 18.6793 10.1741 18.6793C11.5713 18.6815 12.9423 18.3007 14.1382 17.5782L17.8618 21.3018L17.8748 21.2888C18.2552 21.6863 18.7952 21.9304 19.4055 21.9304C20.5846 21.9306 21.5067 20.9912 21.5065 19.8133C21.5062 19.2116 21.2655 18.6736 20.8738 18.2896L20.8832 18.2802L17.041 14.4383C17.5769 13.3711 17.8553 12.1932 17.8541 10.9991C17.8541 6.75588 14.4157 3.31932 10.1741 3.31932C5.9331 3.31932 2.49414 6.75612 2.49414 10.9991ZM14.8342 10.9525C14.8342 13.6045 12.6853 15.7528 10.0342 15.7528C7.38366 15.7528 5.23422 13.6045 5.23422 10.9525C5.23422 8.30052 7.38342 6.15276 10.0342 6.15276C12.6853 6.15252 14.8342 8.30052 14.8342 10.9525Z" fill="#00417F"/>
</svg>
