<svg width="24" height="24" viewBox="0 0 24 24" fill="none" xmlns="http://www.w3.org/2000/svg">
<path fill-rule="evenodd" clip-rule="evenodd" d="M11.5 3C9.80777 3 7.71646 3.5564 6.025 4.825C4.29855 6.11984 3 8.15484 3 11C3 12.7343 3.58086 14.0491 4.16795 14.9297C4.42134 15.3098 4.67606 15.6096 4.88672 15.83L4.02986 19.2575C3.93514 19.6363 4.06964 20.0357 4.37427 20.28C4.6789 20.5244 5.09791 20.5691 5.44721 20.3944L9.05585 18.5901C11.1 19.275 13.9005 19.0415 16.23 17.9712C18.7838 16.7978 21 14.502 21 11C21 7.90387 19.6343 5.83921 17.696 4.5958C15.8191 3.39176 13.4804 3 11.5 3ZM6.97014 15.7425C7.06714 15.3545 6.92361 14.9463 6.60577 14.7044L6.60223 14.7016C6.59604 14.6966 6.58327 14.6862 6.56485 14.6704C6.52795 14.6388 6.46879 14.5858 6.39461 14.5116C6.24575 14.3628 6.03979 14.1319 5.83205 13.8203C5.41914 13.2009 5 12.2657 5 11C5 8.84516 5.95145 7.38016 7.225 6.425C8.53354 5.4436 10.1922 5 11.5 5C13.2691 5 15.1805 5.35824 16.6161 6.2792C17.9904 7.16079 19 8.59613 19 11C19 13.498 17.4662 15.2022 15.395 16.1538C13.2754 17.1277 10.8258 17.1945 9.39392 16.5809C9.12355 16.465 8.81588 16.474 8.55279 16.6056L6.49747 17.6332L6.97014 15.7425ZM11.6247 9.21914C11.2268 8.90083 10.6532 8.93259 10.2929 9.2929L8.29289 11.2929C7.90237 11.6834 7.90237 12.3166 8.29289 12.7071C8.68342 13.0976 9.31658 13.0976 9.70711 12.7071L11.0742 11.34L12.8753 12.7809C13.2732 13.0992 13.8468 13.0674 14.2071 12.7071L16.2071 10.7071C16.5976 10.3166 16.5976 9.68342 16.2071 9.2929C15.8166 8.90238 15.1834 8.90238 14.7929 9.2929L13.4258 10.66L11.6247 9.21914Z" fill="#00417f"/>
</svg>
