<svg width="24" height="24" viewBox="0 0 24 24" fill="none" xmlns="http://www.w3.org/2000/svg">
<path fill-rule="evenodd" clip-rule="evenodd" d="M6 2C3.79086 2 2 3.79086 2 6V18C2 20.2091 3.79086 22 6 22H18C20.2091 22 22 20.2091 22 18V6C22 3.79086 20.2091 2 18 2H6ZM4 6C4 4.89543 4.89543 4 6 4H18C19.1046 4 20 4.89543 20 6V18C20 19.1046 19.1046 20 18 20H6C4.89543 20 4 19.1046 4 18V6ZM11.9988 6.45135C11.9724 5.90919 11.5183 5.48709 10.9757 5.5003C10.433 5.5135 10 5.95719 10 6.5V6.53656V6.57302V6.60937V6.64562V6.68177V6.71782V6.75377V6.78961V6.82535V6.86099V6.89653V6.93197V6.96731V7.00254V7.03768V7.07271V7.10764V7.14248V7.17721V7.21184V7.24637V7.28081V7.31514V7.34937V7.38351V7.41754V7.45148V7.48531V7.51905V7.55269V7.58623V7.61967V7.65301V7.68144C9.9739 7.94169 9.92019 8.16046 9.82332 8.34227C9.69057 8.59141 9.34933 9 8.00002 9C7.44774 9 7 9.44772 7 10C7 10.5523 7.44772 11 8 11H8.00108H8.0022H8.00372H8.00496H8.00637H8.00796H8.00973H8.01167H8.01271H8.0138H8.01493H8.0161H8.01732H8.01859H8.0199H8.02125H8.02265H8.02409H8.02558H8.02711H8.02869H8.03032H8.03199H8.0337H8.03546H8.03726H8.03911H8.04101H8.04295H8.04494H8.04697H8.04904H8.05117H8.05333H8.05555H8.0578H8.06011H8.06246H8.06485H8.06729H8.06978H8.07231H8.07489H8.07752H8.08019H8.0829H8.08566H8.08847H8.09133H8.09423H8.09717H8.10016H8.1032H8.10629H8.10942H8.11259H8.11582H8.11908H8.1224H8.12576H8.12917H8.13262H8.13613H8.13967H8.14327H8.14691H8.1506H8.15433H8.15811H8.16194H8.16581H8.16973H8.1737H8.17771H8.18178H8.18588H8.19004H8.19424H8.19849H8.20279H8.20713H8.21152H8.21596H8.22044H8.22497H8.22955H8.23418H8.23885H8.24357H8.24834H8.25315H8.25802H8.26293H8.26788H8.27289H8.27794H8.28304H8.28819H8.29339H8.29863H8.30392H8.30926H8.31465H8.32008H8.32557H8.3311H8.33667H8.3423H8.34797H8.3537H8.35947H8.36529H8.37115H8.37707H8.38303H8.38904H8.3951H8.40121H8.40736H8.41357H8.41982H8.42612H8.43247H8.43887H8.44532H8.45181H8.45836H8.46495H8.47159H8.47828H8.48502H8.49181H8.49864H8.50553H8.51246H8.51944H8.52648H8.53356H8.54069H8.54786H8.55509H8.56237H8.5697H8.57707H8.5845H8.59197H8.59949H8.60706H8.61469H8.62236H8.63008H8.63785H8.64567H8.65353H8.66145H8.66942H8.67744H8.6855H8.69362H8.70179H8.71H8.71827H8.72659H8.73495H8.74337H8.75183H8.76035H8.76891H8.77753H8.78619H8.79491H8.80367H8.81249H8.82136H8.83027H8.83924H8.84825H8.85732H8.86644H8.87561H8.88482H8.89409H8.90341H8.91278H8.9222H8.93167H8.94119H8.95076H8.96039H8.97006H8.97978H8.98956H8.99938H9.00926H9.01919H9.02916H9.03919H9.04927H9.0594H9.06958H9.07982H9.0901H9.10044H9.11082H9.12126H9.13175H9.14229H9.15288H9.16353H9.17422H9.18497H9.19576H9.20661H9.21751H9.22846H9.23947H9.25052H9.26163H9.27279H9.28399H9.29526H9.30657H9.31793H9.32935H9.34082H9.35234H9.36391H9.37554H9.38722H9.39894H9.41073H9.42256H9.43444H9.44638H9.45837H9.47041H9.48251H9.49465H9.50685H9.5191H9.53141H9.54376H9.55617H9.56863H9.58114H9.59371H9.60633H9.619H9.63172H9.6445H9.65733H9.67021H9.68315H9.69614H9.70918H9.72227H9.73542H9.74862H9.76187H9.77518H9.78853H9.80195H9.81541H9.82893H9.8425H9.85613H9.8698H9.88353H9.89732H9.91116H9.92505H9.93899H9.95299H9.96704H9.98115H9.99531H10V11.006V11.0285V11.0508V11.0731V11.0953V11.1174V11.1395V11.1614V11.1833V11.2051V11.2269V11.2485V11.2701V11.2915V11.313V11.3343V11.3555V11.3767V11.3978V11.4188V11.4398V11.4606V11.4814V11.5021V11.5227V11.5433V11.5638V11.5841V11.6045V11.6247V11.6449V11.665V11.685V11.7049V11.7248V11.7446V11.7643V11.7839V11.8035V11.823V11.8424V11.8617V11.881V11.9002V11.9193V11.9383V11.9573V11.9762V11.995V12.0138V12.0324V12.051V12.0695V12.088V12.1064V12.1247V12.1429V12.1611V12.1792V12.1972V12.2151V12.233V12.2508V12.2685V12.2862V12.3038V12.3213V12.3387V12.3561V12.3734V12.3906V12.4078V12.4249V12.4419V12.4589V12.4757V12.4925V12.5093V12.526V12.5426V12.5591V12.5756V12.592V12.6083V12.6245V12.6407V12.6569V12.6729V12.6889V12.7048V12.7207V12.7364V12.7522V12.7678V12.7834V12.7989V12.8144V12.8297V12.8451V12.8603V12.8755V12.8906V12.9056V12.9206V12.9355V12.9504V12.9652V12.9799V12.9946V13.0092V13.0237V13.0382V13.0526V13.0669V13.0812V13.0954V13.1095V13.1236V13.1376V13.1515V13.1654V13.1793V13.193V13.2067V13.2204V13.2339V13.2474V13.2609V13.2743V13.2876V13.3009V13.3141V13.3272V13.3403V13.3533V13.3663V13.3792V13.392V13.4048V13.4175V13.4301V13.4427V13.4552V13.4677V13.4801V13.4925V13.5048V13.517V13.5292V13.5413V13.5534V13.5653V13.5773V13.5892V13.601V13.6128V13.6245V13.6361V13.6477V13.6592V13.6707V13.6821V13.6935V13.7048V13.716V13.7272V13.7383V13.7494V13.7604V13.7714V13.7823V13.7932V13.804V13.8147V13.8254V13.836V13.8466V13.8571V13.8676V13.878V13.8883V13.8986V13.9089V13.9191V13.9292V13.9393V13.9493V13.9593V13.9692V13.9791V13.9889V13.9987V14.0084V14.018V14.0276V14.0372V14.0467V14.0561V14.0655V14.0749V14.0842V14.0934V14.1026V14.1117V14.1208V14.1299V14.1388V14.1478V14.1567V14.1655V14.1743V14.183V14.1917V14.2003V14.2089V14.2174V14.2259V14.2344V14.2428V14.2511V14.2594V14.2676V14.2758V14.284V14.2921V14.3001V14.3081V14.316V14.324V14.3318V14.3396V14.3474V14.3551V14.3628V14.3704V14.378V14.3855V14.393V14.4004V14.4078V14.4151V14.4224V14.4297V14.4369V14.444V14.4512V14.4582V14.4653V14.4722V14.4792V14.4861V14.4929V14.4997V14.5065V14.5132V14.5199V14.5265V14.5331V14.5396V14.5461V14.5526V14.559V14.5654V14.5717V14.578V14.5842V14.5904V14.5966V14.6027V14.6088V14.6148V14.6208V14.6267V14.6326V14.6385V14.6443V14.6501V14.6559V14.6616V14.6672V14.6729V14.6785V14.684V14.6895V14.695V14.7004V14.7058V14.7111V14.7164V14.7217V14.7269V14.7321V14.7373V14.7424V14.7475V14.7525V14.7575V14.7625V14.7674V14.7723V14.7772V14.782V14.7868V14.7915V14.7962V14.8009V14.8055V14.8101V14.8147V14.8192V14.8237V14.8282V14.8326V14.837V14.8413V14.8456V14.8499V14.8541V14.8583V14.8625V14.8667V14.8708V14.8748V14.8789V14.8829V14.8869V14.8908V14.8947V14.8986V14.9024V14.9062V14.91V14.9137V14.9174V14.9211V14.9247V14.9284V14.9319V14.9355V14.939V14.9425V14.9459V14.9494V14.9528V14.9561V14.9594V14.9627V14.966V14.9692V14.9725V14.9756V14.9788V14.9819V14.985V14.9881V14.9911V14.9941V14.9971V15C10 15.4636 10.1862 16.164 10.6104 16.7645C11.0687 17.4132 11.8504 18 13 18C14.0026 18 14.7226 17.6651 15.2018 17.2775C15.4345 17.0892 15.5999 16.8974 15.7111 16.7443C15.7669 16.6676 15.8097 16.5998 15.8412 16.5457C15.8569 16.5186 15.8699 16.4948 15.8803 16.4749C15.8855 16.465 15.8901 16.456 15.8941 16.448L15.8996 16.4368L15.8412 16.5457L15.9031 16.4294L15.9036 16.4283L15.8412 16.5457L15.9042 16.4272C16.1401 15.9278 15.9265 15.3317 15.4272 15.0958C14.9376 14.8645 14.3551 15.0653 14.1101 15.5438C14.1074 15.5482 14.1019 15.5567 14.0935 15.5682C14.0684 15.6026 14.0203 15.6608 13.9439 15.7225C13.805 15.8349 13.5249 16 13 16C12.622 16 12.4038 15.8368 12.2439 15.6105C12.1565 15.4867 12.0914 15.3464 12.0492 15.216C12.0093 15.0925 12.0015 15.0145 12.0002 15.0016L12 15V14.9971V14.9941V14.9911V14.9881V14.985V14.9819V14.9788V14.9756V14.9725V14.9692V14.966V14.9627V14.9594V14.9561V14.9528V14.9494V14.9459V14.9425V14.939V14.9355V14.9319V14.9284V14.9247V14.9211V14.9174V14.9137V14.91V14.9062V14.9024V14.8986V14.8947V14.8908V14.8869V14.8829V14.8789V14.8748V14.8708V14.8667V14.8625V14.8583V14.8541V14.8499V14.8456V14.8413V14.837V14.8326V14.8282V14.8237V14.8192V14.8147V14.8101V14.8055V14.8009V14.7962V14.7915V14.7868V14.782V14.7772V14.7723V14.7674V14.7625V14.7575V14.7525V14.7475V14.7424V14.7373V14.7321V14.7269V14.7217V14.7164V14.7111V14.7058V14.7004V14.695V14.6895V14.684V14.6785V14.6729V14.6672V14.6616V14.6559V14.6501V14.6443V14.6385V14.6326V14.6267V14.6208V14.6148V14.6088V14.6027V14.5966V14.5904V14.5842V14.578V14.5717V14.5654V14.559V14.5526V14.5461V14.5396V14.5331V14.5265V14.5199V14.5132V14.5065V14.4997V14.4929V14.4861V14.4792V14.4722V14.4653V14.4582V14.4512V14.444V14.4369V14.4297V14.4224V14.4151V14.4078V14.4004V14.393V14.3855V14.378V14.3704V14.3628V14.3551V14.3474V14.3396V14.3318V14.324V14.316V14.3081V14.3001V14.2921V14.284V14.2758V14.2676V14.2594V14.2511V14.2428V14.2344V14.2259V14.2174V14.2089V14.2003V14.1917V14.183V14.1743V14.1655V14.1567V14.1478V14.1388V14.1299V14.1208V14.1117V14.1026V14.0934V14.0842V14.0749V14.0655V14.0561V14.0467V14.0372V14.0276V14.018V14.0084V13.9987V13.9889V13.9791V13.9692V13.9593V13.9493V13.9393V13.9292V13.9191V13.9089V13.8986V13.8883V13.878V13.8676V13.8571V13.8466V13.836V13.8254V13.8147V13.804V13.7932V13.7823V13.7714V13.7604V13.7494V13.7383V13.7272V13.716V13.7048V13.6935V13.6821V13.6707V13.6592V13.6477V13.6361V13.6245V13.6128V13.601V13.5892V13.5773V13.5653V13.5534V13.5413V13.5292V13.517V13.5048V13.4925V13.4801V13.4677V13.4552V13.4427V13.4301V13.4175V13.4048V13.392V13.3792V13.3663V13.3533V13.3403V13.3272V13.3141V13.3009V13.2876V13.2743V13.2609V13.2474V13.2339V13.2204V13.2067V13.193V13.1793V13.1654V13.1515V13.1376V13.1236V13.1095V13.0954V13.0812V13.0669V13.0526V13.0382V13.0237V13.0092V12.9946V12.9799V12.9652V12.9504V12.9355V12.9206V12.9056V12.8906V12.8755V12.8603V12.8451V12.8297V12.8144V12.7989V12.7834V12.7678V12.7522V12.7364V12.7207V12.7048V12.6889V12.6729V12.6569V12.6407V12.6245V12.6083V12.592V12.5756V12.5591V12.5426V12.526V12.5093V12.4925V12.4757V12.4589V12.4419V12.4249V12.4078V12.3906V12.3734V12.3561V12.3387V12.3213V12.3038V12.2862V12.2685V12.2508V12.233V12.2151V12.1972V12.1792V12.1611V12.1429V12.1247V12.1064V12.088V12.0695V12.051V12.0324V12.0138V11.995V11.9762V11.9573V11.9383V11.9193V11.9002V11.881V11.8617V11.8424V11.823V11.8035V11.7839V11.7643V11.7446V11.7248V11.7049V11.685V11.665V11.6449V11.6247V11.6045V11.5841V11.5638V11.5433V11.5227V11.5021V11.4814V11.4606V11.4398V11.4188V11.3978V11.3767V11.3555V11.3343V11.313V11.2915V11.2701V11.2485V11.2269V11.2051V11.1833V11.1614V11.1395V11.1174V11.0953V11.0731V11.0508V11.0285V11.006V11H12.0103H12.031H12.0517H12.0725H12.0933H12.1142H12.1351H12.1562H12.1772H12.1983H12.2195H12.2408H12.262H12.2834H12.3048H12.3263H12.3478H12.3694H12.391H12.4127H12.4345H12.4563H12.4782H12.5001H12.5221H12.5442H12.5663H12.5884H12.6107H12.6329H12.6553H12.6777H12.7001H12.7227H12.7452H12.7679H12.7906H12.8133H12.8361H12.859H12.8819H12.9049H12.9279H12.9511H12.9742H12.9974H13.0207H13.0441H13.0675H13.0909H13.1144H13.138H13.1617H13.1854H13.2091H13.2329H13.2568H13.2807H13.3047H13.3288H13.3529H13.3771H13.4013H13.4256H13.4499H13.4743H13.4988H13.5233H13.5479H13.5726H13.5973H13.622H13.6469H13.6718H13.6967H13.7217H13.7468H13.7719H13.7971H13.8223H13.8477H13.873H13.8985H13.9239H13.9495H13.9751H14.0008H14.0265H14.0523H14.0781H14.104H14.13H14.1561H14.1821H14.2083H14.2345H14.2608H14.2871H14.3135H14.34H14.3665H14.3931H14.4197H14.4464H14.4732H14.5C15.0523 11 15.5 10.5523 15.5 10C15.5 9.44772 15.0523 9 14.5 9H14.4732H14.4464H14.4197H14.3931H14.3665H14.34H14.3135H14.2871H14.2608H14.2345H14.2083H14.1821H14.1561H14.13H14.104H14.0781H14.0523H14.0265H14.0008H13.9751H13.9495H13.9239H13.8985H13.873H13.8477H13.8223H13.7971H13.7719H13.7468H13.7217H13.6967H13.6718H13.6469H13.622H13.5973H13.5726H13.5479H13.5233H13.4988H13.4743H13.4499H13.4256H13.4013H13.3771H13.3529H13.3288H13.3047H13.2807H13.2568H13.2329H13.2091H13.1854H13.1617H13.138H13.1144H13.0909H13.0675H13.0441H13.0207H12.9974H12.9742H12.9511H12.9279H12.9049H12.8819H12.859H12.8361H12.8133H12.7906H12.7679H12.7452H12.7227H12.7001H12.6777H12.6553H12.6329H12.6107H12.5884H12.5663H12.5442H12.5221H12.5001H12.4782H12.4563H12.4345H12.4127H12.391H12.3694H12.3478H12.3263H12.3048H12.2834H12.262H12.2408H12.2195H12.1983H12.1772H12.1562H12.1351H12.1142H12.0933H12.0725H12.0517H12.031H12.0103H12V8.99586V8.9666V8.93726V8.90782V8.87829V8.84866V8.81895V8.78914V8.75924V8.72924V8.69915V8.66897V8.6387V8.60833V8.57787V8.54731V8.51666V8.48592V8.45508V8.42414V8.39312V8.36199V8.33077V8.29946V8.26805V8.23655V8.20495V8.17326V8.14147V8.10958V8.0776V8.04552V8.01334V7.98107V7.9487V7.91624V7.88368V7.85102V7.81826V7.78541V7.76907C12.0405 7.29493 12.0186 6.85224 12.0018 6.51265L11.9988 6.45135Z" fill="#00417f"/>
</svg>
