<svg width="24" height="24" viewBox="0 0 24 24" fill="none" xmlns="http://www.w3.org/2000/svg">
<path fill-rule="evenodd" clip-rule="evenodd" d="M11.5 3C10.0387 3 7.95958 3.56687 6.2282 4.81347C4.46154 6.08546 3 8.1142 3 11C3 12.7343 3.58086 14.0491 4.16795 14.9297C4.42134 15.3098 4.67606 15.6096 4.88672 15.83L4.02986 19.2575C3.93514 19.6363 4.06964 20.0357 4.37427 20.28C4.6789 20.5244 5.09791 20.5691 5.44721 20.3944L9.05585 18.5901C11.1 19.275 13.9005 19.0415 16.23 17.9712C18.7838 16.7978 21 14.502 21 11C21 7.8429 19.3898 5.79444 17.394 4.58271C15.448 3.40121 13.1304 3 11.5 3ZM6.97014 15.7425C7.06714 15.3545 6.92361 14.9463 6.60577 14.7044L6.60223 14.7016C6.59604 14.6966 6.58327 14.6862 6.56485 14.6704C6.52795 14.6388 6.46879 14.5858 6.39461 14.5116C6.24575 14.3628 6.03979 14.1319 5.83205 13.8203C5.41914 13.2009 5 12.2657 5 11C5 8.8858 6.03846 7.41454 7.3968 6.43653C8.79042 5.43313 10.4613 5 11.5 5C12.8696 5 14.802 5.34879 16.356 6.29229C17.8602 7.20556 19 8.6571 19 11C19 13.498 17.4662 15.2022 15.395 16.1538C13.2754 17.1277 10.8258 17.1945 9.39392 16.5809C9.12355 16.465 8.81588 16.474 8.55279 16.6056L6.49747 17.6332L6.97014 15.7425ZM9.59152 7.06442C9.98632 6.8933 10.3769 7.08568 10.5492 7.37629L11.3433 8.7157C11.5039 8.98648 11.4971 9.37812 11.2024 9.64135C11.0761 9.75416 10.9013 9.89246 10.7387 10.0212H10.7386C10.6493 10.0918 10.5637 10.1596 10.4918 10.2187C11.2408 11.6103 12.2998 12.2665 12.7841 12.5082L13.3683 11.8362C13.6442 11.519 14.1115 11.4518 14.4544 11.6695C14.7717 11.8709 15.2107 12.1422 15.6095 12.3692C15.8754 12.5207 16.056 12.8299 15.9841 13.1742C15.8551 13.7925 15.574 14.2397 15.1896 14.538C14.8117 14.8313 14.3724 14.9509 13.9735 14.987C13.189 15.0582 12.4535 14.8157 12.3193 14.7691C12.2853 14.7572 12.2572 14.7449 12.2271 14.7292C12.0842 14.6545 11.2427 14.2029 10.3516 13.4696C9.46973 12.7439 8.48606 11.6992 8.13687 10.4263C7.88037 9.49132 8.00548 8.73901 8.33702 8.16471C8.66276 7.60048 9.16332 7.25002 9.59152 7.06442Z" fill="#00417f"/>
</svg>
