<svg width="57" height="72" viewBox="0 0 57 72" fill="none" xmlns="http://www.w3.org/2000/svg">
<path fill-rule="evenodd" clip-rule="evenodd" d="M7.99951 6.89992L13.9374 6.89992C19.7832 6.89993 24.5341 11.6358 24.5341 17.4524L24.5341 57.6015L6.72666 39.8685C5.4099 38.5572 3.26836 38.5572 1.95161 39.8685C1.29082 40.5265 0.962851 41.3862 0.962851 42.246C0.962851 43.1057 1.29082 43.9655 1.95161 44.6235L28.523 71.0838L55.0943 44.6187C56.4111 43.3075 56.4111 41.1749 55.0943 39.8636C53.7776 38.5524 51.6361 38.5524 50.3193 39.8636L31.2867 58.8167L31.2867 17.4524C31.2867 7.9278 23.502 0.175591 13.9374 0.17559L7.99951 0.17559V6.89992Z" fill="#0096FF"/>
</svg>
